<svg width="1200" height="1200" viewBox="0 0 1200 1200" fill="none" xmlns="http://www.w3.org/2000/svg">
<circle cx="600" cy="600" r="600" fill="white"/>
<g filter="url(#filter0_i_87_31)">
<path d="M517.916 279.512C519.269 279.601 524.571 280.661 526.874 280.94C524.112 281.776 513.044 279.203 517.916 279.512ZM754.956 204.877C753.205 205.279 751.439 205.676 749.659 206.068C754.738 206.001 761.573 205.351 766.354 205.28C767.131 205.271 765.188 206.28 767.02 206.184C768.849 206.086 768.413 204.936 771.032 204.604C773.818 204.277 787.782 203.829 792.295 203.281C809.845 201.298 827.279 198.062 844.368 195.21C826.764 199.402 844.966 196.964 849.638 195.561C850.712 195.19 850.228 193.324 867.587 189.718C878.324 187.282 869.51 193.058 886.838 186.43C872.459 188.291 886.225 184.704 896.423 181.144C898.11 180.649 912.393 175.759 917.673 173.082C919.543 172.198 921.85 169.818 924.022 168.641C925.416 167.885 927.036 167.727 928.891 166.587C929.1 166.458 929.304 166.331 929.501 166.206L983.486 232.457C972.609 244.282 961.833 255.863 950.68 267.484C955.112 258.419 944.587 272.154 943.956 272.623C940.683 274.947 952.668 261.799 947.495 266.594C940.846 273.837 934.198 281.08 927.549 288.323C933.325 282.678 922.069 297.824 919.005 299.684C921.951 300.358 886.737 330.857 882.556 336.603C881.687 337.802 889.198 331.661 873.531 347.547C871.833 349.267 871.882 348.061 871.07 349.036C870.584 349.621 869.276 354.685 864.924 357.313C863.334 358.273 869.941 348.802 853.277 367.585C861.967 362.025 830.511 393.947 824.414 399.53C825.789 398.561 827.164 397.592 828.539 396.624C822.298 401.944 821.927 403.609 820.638 404.918C815.447 410.19 807.862 417.021 803.213 422.108C797.772 428.06 798.911 429.162 792.039 435.607C793.818 434.217 795.598 432.826 797.377 431.436C792.88 436.12 788.384 440.805 783.887 445.489C792.625 433.075 781.599 447.789 780.809 448.699C779.553 450.154 780.811 447.552 778.695 449.971C778.481 450.225 779.399 450.427 776.084 454.105C769.154 461.787 769.529 459.899 766.57 463.078C766.302 463.372 767.786 462.853 762.788 468.449C746.904 486.235 762.461 467.981 763.013 467.244C763.736 466.276 755.928 470.166 770.55 456.113C765.654 460.844 764.203 460.423 763.655 460.96C763.172 461.436 755.263 470.17 754.853 470.676C751.231 475.218 755.385 472.125 754.735 473.063C754.201 473.828 743.629 483.374 743.379 487.696C736.874 490.91 744.353 483.257 751.846 474.671C752.598 473.099 743.683 481.885 743.235 482.366C732.218 494.151 739.854 489.064 738.426 492.557C737.674 494.39 732.137 498.211 737.659 495.067C727.802 505.896 733.07 498.665 732.307 499.245C731.158 500.125 728.053 504.236 727.562 504.655C726.842 505.27 728.6 502.434 725.897 504.988C725.451 505.415 722.187 510.549 727.846 505.285C720.692 512.699 721.971 512.734 718.175 513.967C715.994 521.643 713.082 516.254 711.024 518.155C705.555 523.212 709.121 523.596 708.955 523.978C707.762 526.564 692.994 540.912 689.816 544.914C689.681 542.037 700.938 532.991 702.829 530.383C709.135 521.69 691.815 540.648 695.207 533.224C693.511 536.08 691.815 538.937 690.118 541.793C684.837 544.999 690.071 538.338 679.579 550.448C678.842 553.343 687.146 542.025 686.063 544.842C685.424 546.5 679.186 553.378 679.318 553.751C679.501 554.173 684.867 547.703 684.438 549.113C683.489 552.179 661.609 573.619 676.965 556.082C672.543 560.844 668.22 561.385 665.005 566.094C662.928 569.14 679.744 556.798 658.218 578.778C656.81 578.357 666.334 569.532 666.49 569.218C666.707 568.773 662.937 568.455 662.552 568.651C661.22 569.369 640.927 593.394 635.304 597.222C638.352 596.476 619.315 614.764 617.736 617.218C617.319 617.875 620.039 616.507 619.562 617.18C616.564 621.355 605.775 630.142 601.37 634.78C596.44 639.97 597.723 639.928 597.449 640.219C595.26 642.485 596.529 640.227 595.215 641.634C593.231 643.76 579.485 658.273 578.893 659.093C578.722 659.335 581.709 657.66 578.875 660.978C578.385 661.552 577.813 660.362 569.386 670.15C559.236 681.937 577.875 663.313 574.405 668.91C566.246 674.947 567.795 675.953 565.842 677.832C565.163 678.481 559.269 682.52 554.165 688.12C557.697 683.978 561.228 679.835 564.759 675.692C560.91 679.411 554.063 687.222 550.831 690.229C549.255 691.696 549.537 689.536 546.374 692.968C545.708 693.701 545.282 698.685 552.62 688.808C554.094 688.848 549.595 692.606 547.979 694.79C547.736 695.122 547.984 697.557 544.792 699.291C544.021 699.703 546.244 689.446 533.217 709.077C532.798 709.71 535.067 708.27 534.67 708.9C534.397 709.33 530.146 713.475 529.768 714.019C529.385 714.579 531.88 712.989 531.44 713.671C529.191 717.169 523.391 719.097 529.316 713.088C527.126 714.9 524.937 716.714 522.747 718.526C526.415 717.825 520.174 722.184 517.558 725.079C500.794 743.637 513.276 732.385 510.88 736.031C507.025 741.892 507.883 735.464 501.698 743.733C501.127 744.499 510.769 736.529 493.561 753.607C495.958 750.953 498.355 748.299 500.752 745.645C497.79 745.697 492.039 755.174 491.491 755.804C485.206 762.952 489.039 757.731 480.189 768.796C479.398 769.785 477.138 771.433 475.486 773.583C468.635 782.487 486.045 763.253 487.158 763.323C487.696 763.366 468.563 783.667 467.762 784.229C464.336 786.592 476.115 774.727 473.133 776.3C472.053 776.881 445.481 806.468 439.719 812.001C433.066 818.382 428.129 819.438 430.456 821.695C426.358 821.419 426.376 824.577 425.555 825.422C415.617 835.617 415.575 835.614 407.459 844.737C405.667 846.751 403.407 847.754 402.875 848.561C402.568 849.034 404.031 848.982 402.407 851.185C401.448 852.481 397.967 856.079 394.156 859.856L360.333 790.522C367.883 790.123 375.997 789.935 377.009 790.181C378.781 790.602 367.26 791.256 369.397 792.018C377.751 791.394 385.642 790.513 393.852 789.973C397.259 789.753 395.561 790.544 397.03 790.444C397.618 790.401 409.411 788.944 408.964 788.739C407.485 788.224 371.297 791.489 380.743 789.585C382.602 789.206 389.293 790.188 388.1 788.437C420.715 786.251 454.249 784.568 486.78 783.636C468.409 785.769 446.263 785.73 426.923 787.14C424.228 787.329 414.975 787.788 416.159 788.641C433.116 787.688 453.833 785.971 470.192 785.793C470.71 785.788 468.856 786.715 470.794 786.754C474.468 786.815 485.898 784.96 488.023 785.228C488.306 785.296 481.724 786.679 483.77 787.293C488.981 788.871 490.347 784.831 494.9 784.703C498.592 784.57 521.796 785.76 527.709 784.442C533.863 782.986 510.473 784.13 512.185 783.044C527.524 781.506 544.694 782.317 559.26 782.082C559.52 782.077 557.255 781.263 560.549 781.123C566.552 780.882 568.116 782.062 571.007 782.245C574.147 782.432 585.024 782.303 586.442 782.751C586.625 782.808 584.432 783.962 584.1 783.993C579.388 784.449 577.692 782.933 577.261 782.912C575.635 782.851 574.032 783.431 572.539 783.397C570.08 783.341 568.722 782.805 565.447 782.771C563.184 782.747 565.374 783.768 563.191 783.732C562.271 783.711 554.024 781.42 553.248 783.839C552.694 784.31 622.612 785.756 629.095 785.739C623.23 785.259 617.422 784.812 611.459 784.394C623.405 785.339 638.041 783.961 639.016 786.853C683.922 788.862 728.648 792.712 773.755 799.931C781.84 801.467 777.223 802.521 790.308 804.231C787.078 803.071 783.797 801.924 780.464 800.79C787.104 802.131 816.76 808.61 821.982 809.539C822.613 809.634 823.921 808.193 831.38 809.777C837.854 811.174 838.887 812.725 842.386 813.847C845.364 814.801 848.771 815.365 849.627 815.665C850.284 815.897 850.356 816.699 851.922 817.26C856.872 819.04 853.225 815.815 857.812 819.644C856.532 819.379 855.14 819.087 853.953 818.857C860.193 820.936 868.385 824.542 859.033 822.379C857.411 822.014 858.985 821.701 857.79 821.362C811.8 809.496 848.18 819.989 864.557 823.772C868.22 825.826 891.411 832.908 892.167 833.575C893.135 834.263 888.86 833.61 893.81 836.239C894.906 836.462 925.294 848.781 913.9 845.453C911.592 844.667 897.187 838.452 893.634 837.263C901.031 842.3 921.294 847.573 923.656 848.955C932.271 853.445 905.898 842.78 925.542 852.383C940.185 860.029 926.909 851.537 933.015 853.934C936.633 855.182 952.336 866.441 952.992 864.453C958.653 867.848 954.809 866.745 955.434 867.247C956.237 867.759 967.48 874.87 970.74 878.283C971.122 878.666 969.087 878.488 969.462 878.911C970.166 879.5 980.546 888.379 980.85 888.747C981.152 888.938 979.526 885.999 980.647 886.736C981.97 887.373 991.136 897.542 991.864 898.268C992.917 898.486 981.24 886.362 983.859 887.638C989.368 893.276 998.067 902.907 1001.99 907.729C1001.07 906.598 996.218 899.801 994.527 897.701C996.75 897.264 1006.92 912.674 1002.37 908.114C1005.04 911.116 1003.91 908.562 1005.67 910.249C1006.19 910.703 1009.09 916.07 1009.79 917.024C1009.96 917.133 1007.61 911.227 1008.47 912.193C1010.4 913.28 1017.62 932.515 1017.27 934.839C1018.08 939.72 1013.16 922.813 1011.71 922.321C1011.75 921.962 1014.65 936.014 1014.26 936.354C1013.71 936.886 1012.92 933.205 1011.78 929.733C1010.66 926.266 1009.44 923.423 1009.2 924.376C1010.24 927.752 1011.19 931.6 1011.77 935.405C1007.9 920.171 995.092 901.339 990.553 898.459C1002.22 910.649 1009.61 931.397 1006.33 932.385C1005.17 932.485 1001.75 925.053 1001.48 925.51C1001.06 926.826 1005.6 937.632 1005.4 938.225C1005.4 938.592 1005.36 938.766 1005.3 938.778C1005.3 938.778 1005.3 938.778 1005.3 938.778C1004.97 938.844 1003.92 934.744 1002.32 930.742C1000.86 927.013 998.884 923.214 998.611 923.003C997.604 922.009 998.304 929.261 997.734 929.378C997.654 929.291 996.525 926.776 995.341 924.843C994.23 923.038 993.145 921.725 993.519 923.423C994.391 926.734 997.347 935.403 997.234 935.89C997.51 937.412 991.51 922.89 990.754 923.037C990.587 922.836 993.086 930.596 992.803 930.97C992.668 931.233 989.715 925.752 987.843 924.252C986.496 923.051 988.29 927.651 987.793 926.921C987.707 926.239 980.883 915.074 980.205 914.766C979.87 914.454 979.971 914.986 980.11 915.585C980.269 916.211 980.446 916.885 980.239 916.759C979.607 916.307 977.502 913.061 977.562 913.628C977.853 913.772 984.132 928.685 983 928.935C982.036 929.175 976.359 914.134 979.557 929.249C979.603 929.357 981.376 932.282 981.396 932.464C981.368 934.732 975.956 925.204 981.188 937.493C969.459 915.698 978.606 935.45 975.137 932.939C974.023 932.026 969.02 924.599 968.742 924.64C968.473 925.958 970.688 927.902 970.737 928.955C970.896 929.544 965.469 923.502 965.948 925.431C966.381 926.403 970.708 933.162 970.685 933.56C971.488 936.598 969.176 933.559 969.067 934.377C969.05 934.893 970.871 939.019 970.799 939.146C970.829 939.305 967.23 934.394 966.078 933.492C965.316 932.814 966.616 936.258 966.146 935.726C963.677 932.661 960.297 924.218 962.475 932.946C962.585 933.437 964.167 936.007 964.153 936.109C964.249 938.121 961.548 933.423 960.324 933.041C958.417 932.376 963.051 938.38 958.923 933.544C960.771 937.895 962.079 940.237 963.627 944.343C961.502 938.468 957.348 934.586 956.031 934.175C954.493 933.717 956.301 936.74 959.069 942.917C957.362 938.959 955.726 940.194 955.057 939.034C954.831 938.421 951.862 931.265 950.56 936.431C950.451 937.073 953.254 940.153 951.665 939.647C946.093 931.304 951.151 939.9 950.883 939.924C949.841 940.547 946.763 935.765 941.267 930.189C936.021 924.693 928.683 918.847 926.392 917.459C920.845 913.992 915.026 912.817 913.674 912.03C909.733 909.766 913.489 910.804 912.781 909.988C912.186 909.116 899.175 904.418 898.592 904.13C896.355 902.6 899.306 902.744 899.08 902.572C896.311 900.277 878.784 893.748 873.785 891.751C873.762 892.503 883.51 896.387 876.978 895.111C869.293 893.65 869.827 890.427 869.707 890.214C835.961 878.099 799.469 870.107 762.296 864.391C762.736 866.138 786.634 868.861 787.345 869.322C790.139 871.006 749.713 864.278 744.672 863.256C748.482 864.145 752.225 865.049 755.9 865.969C749.395 867.016 734.787 862.452 725.481 862.321C722.394 862.262 728.169 863.695 728.032 863.736C724.549 864.114 719.051 862.912 723.315 862.327C714.763 862.405 716.01 861.432 709.504 860.7C709.177 860.666 711.821 861.733 706.774 861.585C704.456 861.501 691.621 860.386 689.767 860.967C689.037 861.204 695.357 864.875 696.377 862.254C710.131 864.8 700.93 861.419 706.275 861.973C707.175 862.088 704.781 863.308 718.785 864.05C715.771 866.435 700.502 862.914 697.756 863.035C692.254 863.209 714.577 866.648 719.213 865.079C717.012 866.983 720.838 865.531 725.861 866.19C731.335 866.917 728.869 867.27 731.809 867.623C739.835 868.622 736.83 866.736 743.415 868.957C737.393 863.93 754.998 869.943 759.939 871.86C751.493 870.789 743.02 869.841 734.203 868.971C734.648 869.247 735.112 869.525 735.593 869.807C733.318 869.492 731.176 869.202 728.937 868.908C729.319 868.74 729.7 868.573 730.081 868.407C718.418 868.421 715.538 866.631 714.592 866.505C702.427 865.062 687.768 863.839 675.54 863.006C673.642 862.889 674.99 864.294 661.158 862.4C656.705 861.808 661 860.977 655.891 860.86C649.653 863.433 649.875 861.142 648.048 861.049C642.796 860.801 639.488 861.388 638.997 861.374C632.375 861.209 622.599 860.764 615.53 860.698C615.396 860.705 619.104 861.689 614.452 861.308C613.011 861.17 597.562 857.025 585.013 858.2C588.364 858.478 591.639 858.766 594.979 859.064C591.228 858.597 563.312 859.518 570.126 860.549C574.371 861.153 584.524 858.747 585.595 861.115C576.446 860.147 525.05 861.884 521.078 861.606C520.535 861.543 523.848 860.69 523.097 860.613C522.538 860.545 510.932 861.065 509.339 860.833C508.409 860.688 513.569 860.054 513.137 859.793C512.8 859.596 498.047 859.778 497.196 860.781C500.861 860.25 511.023 860.241 505.724 861.229C505.044 861.352 501.457 860.862 500.62 861.021C492.909 862.47 516.07 861.362 519.48 861.31C505.293 862.906 482.58 862.362 465.986 864.043C459.136 863.6 476.001 862.31 468.278 862.044C452.175 861.522 464.079 863.366 463.588 863.493C459.656 864.495 445.727 860.988 446.044 864.261C440.334 864.115 442.166 863.583 434.101 864.53C435.182 864.687 436.262 864.845 437.339 865.004C428.568 867.443 408.751 864.071 410.153 863.611C414.05 862.336 424.253 863.15 425.093 863.06C426.337 862.927 429.72 859.333 443.531 861.458C449.025 858.866 421.702 861.345 434.077 859.021C425.596 859.756 390.651 860.824 385.731 862.268C385.135 862.448 388.139 864.422 379.374 864.025C375.204 863.837 385.141 862.971 383.211 862.627C381.712 862.358 375.569 862.637 366.821 863.293L283.076 868.661L340.799 809.95C358.537 791.517 390.337 756.684 397.989 748.412C398.656 747.695 398.915 748.429 399.567 747.722C401.572 745.55 408.179 736.981 412.024 733.334C403.604 740.466 418.072 724.853 421.873 720.994C427.643 715.139 428.183 716.339 430.797 713.923C440.871 704.609 453.249 687.155 462.479 681.232C460.128 679.83 475.997 668.699 481.908 662.413C486.539 657.49 491.945 649.119 484.926 655.046C492.986 646.608 501.011 637.298 508.369 629.194C509.585 627.854 508.461 630.213 510.517 627.91C510.7 627.697 510.398 626.885 512.15 624.894C526.603 608.452 520.533 617.353 523.683 614.694C525.446 613.206 526.7 612.063 527.58 611.187C518.978 620.605 509.151 631.557 506.48 634.445C510.023 633.164 525.55 613.576 530.87 608.562C531.055 608.388 531.142 609.677 531.323 609.493C531.326 609.49 531.33 609.486 531.334 609.482C533.254 607.534 544.895 594.578 541.625 596.428C540.748 596.926 535.273 602.78 528.854 609.793C530.458 607.769 528.373 608.451 528.651 608.088C532.03 603.71 541.998 594.564 545.368 591.164C546.137 590.386 545.589 589.981 545.71 589.849C548.795 586.776 548.988 589.4 550.581 584.778C557.724 580.668 540.753 595.809 542.987 595.712C544.704 595.64 578.597 558.455 577.108 557.269C577.375 557.281 578.032 556.948 579.21 556.107C581.825 554.244 591.245 543.881 592.64 541.877C592.868 541.533 591.412 540.393 591.745 540.012C592.578 539.059 605.324 527.546 608.895 522.134C606.349 524.479 603.802 526.823 601.255 529.168C615.484 513.932 612.882 515.911 607.736 520.607C607.495 520.858 607.213 521.057 606.981 521.294C603.006 524.947 598.005 529.72 597.827 529.697C597.152 529.607 621.087 503.566 617.688 509.701C617.211 510.553 605.477 521.985 611.902 516.9C613.027 516.011 619.951 508.098 620.426 507.787C623.602 505.7 608.793 523.271 611.637 522.09C614.558 517.196 619.906 512.411 624.042 507.532C625.925 505.313 625.737 504.161 625.97 503.887C629.455 499.808 628.107 502.666 629.312 501.343C629.955 500.63 635.664 491.509 636.376 494.908C658.619 468.067 641.426 486.452 626.962 502.151C630.813 496.518 640.212 487.202 644.09 482.704C645.48 481.09 643.926 481.364 646.244 478.608C651.016 472.935 675.952 447.869 682.429 441.32C678.811 445.678 680.695 445.176 683.624 441.94C686.553 438.703 683.042 440.439 683.515 439.716C684.026 438.945 698.489 424.435 700.686 421.824C690.52 433.424 693.648 431.588 702.665 422.106C701.589 423.69 700.514 425.274 699.438 426.858C704.373 420.972 716.534 410.269 719.222 406.712C719.642 406.153 717.302 407.386 717.539 407.072C719.926 403.98 729.608 394.922 729.813 394.27C729.99 393.721 725.605 397.347 726.774 395.573C727.018 395.202 731.589 392.028 735.039 387.919C736.32 386.394 734.904 386.709 735.211 386.311C737.775 382.994 737.099 385.735 742.148 380.012C745.846 375.819 747.705 371.857 753.307 366.521C734.729 383.869 749.816 368.789 756.679 360.689C757.779 359.391 755.698 359.44 763.163 352.519C750.365 370.136 768.409 348.99 772.311 344.861C772.53 344.64 773.319 345.232 775.234 343.208C775.394 343.035 774.679 342.83 776.41 340.904C792.835 322.642 782.656 334.621 786.32 331.66C787.88 330.4 795.353 321.038 797.534 318.674C798.037 318.132 798.308 318.851 800.243 316.743C803.665 313.012 806.228 309.199 808.468 306.719C808.732 306.432 809.536 307.162 813.605 302.295C814.75 300.927 815.834 299.204 813.878 300.838C807.398 306.262 797.827 319.097 790.602 325.321C784.015 330.997 802.573 311.027 803.537 309.987C803.89 309.605 800.647 313.862 804.42 309.984C807.64 306.672 812.037 299.224 817.038 294.476C817.418 294.113 822.337 291.183 822.232 291.432C822.124 291.646 816.606 298.051 817.781 297.469C817.919 297.398 821.578 293.471 822.307 293.193C823.198 292.851 827.769 293.958 828.627 293.191C830.822 291.216 828.832 291.976 830.179 290.631C833.066 287.744 843.619 278.235 842.897 276.929C841.238 278.579 839.579 280.229 837.921 281.879C846.701 272.279 842.471 275.916 843.536 274.388C844.681 272.742 845.211 274.002 848.292 270.879C848.963 270.2 861.306 256.622 860.696 256.508C854.373 264.488 855.817 260.687 855.477 261.01C854.189 262.24 853.27 264.489 851.628 266.219C840.07 278.378 850.63 265.09 847.668 267.743C846.651 268.657 845.335 271.145 844.912 271.542C843.539 272.831 842.812 272.193 842.013 273.162C840.146 275.423 843.479 273.863 843.372 274.08C842.212 276.574 834.436 283.329 837.705 277.655C834.698 280.084 835.713 281.648 833.111 283.371C827.942 286.801 834.388 280.448 835.887 278.496C841.264 271.492 843.552 270.062 851.877 260.814C854.876 257.485 857.859 253.009 859.244 251.458C860.116 250.481 870.794 243.54 867.548 240.006C871.17 236.812 878.623 233.459 881.9 229.744C884.841 226.408 882.639 226.284 882.874 225.936C883.233 225.402 887.003 221.567 888.07 220.076C889.319 218.327 888.121 218.662 890.238 216.013C895.507 209.423 896.618 210.764 897.291 210.209C905.096 203.765 900.298 205.296 901.676 203.535C902.83 202.062 919.571 185.261 925.629 178.343L970.817 233.798C969.743 234.494 968.846 235.078 968.203 235.525C969.055 234.895 969.891 234.262 970.711 233.626L925.777 178.481C924.811 179.852 923.845 181.224 922.879 182.595C924.353 181.626 925.548 180.34 926.544 179.198L970.164 232.73C967.656 234.364 965.721 235.678 965.085 234.675C965.483 238.133 954.424 241.515 951.749 242.754C950.614 243.317 950.93 243.759 949.474 244.446C943.749 247.235 931.138 251.681 928.084 253.004C915.261 258.943 949.647 248.326 952.661 246.449C947.165 249.465 916.975 261.172 931.585 257.447C933.873 256.863 937.132 254.118 938.262 253.609C946.546 249.897 940.409 253.715 941.111 253.563C942.362 253.281 947.19 249.946 948.709 249.417C949.196 249.232 946.573 251.717 954.597 248.069C950.826 251.348 928.587 259.105 925.802 260.126C924.805 260.496 931.987 260.813 912.527 264.623C912.807 264.765 913.087 264.907 913.366 265.048C902.747 268.416 892.654 271.197 882.21 273.761C883.251 273.002 888.883 270.612 881.522 272.592C877.232 273.72 880.68 274.064 880.295 274.188C876.587 276.295 809.597 287.285 796.744 287.834C792.483 288.34 780.023 290.337 779.234 290.397C773.734 290.997 753.889 291.648 749.957 291.907C747.479 292.105 749.885 292.929 747.66 292.988C745.587 293.038 747.692 292.04 747.076 292.03C742.108 292.115 703.946 294.098 695.016 292.979C700.381 293.379 727.898 291.232 727.435 290.524C727.298 290.446 720.554 289.901 719.241 290.25C716.997 289.511 709.229 291.979 704.898 291.511C704.445 291.455 706.214 290.134 698.734 289.874C696.169 289.783 689.384 290.781 682.438 289.478C672.585 290.184 620.537 285.71 616.986 286.612C616.879 286.683 624.161 287.71 619.173 287.937C612.515 288.221 618.655 286.05 610.952 285.216C609.755 285.129 588.711 283.509 587.903 283.552C581.28 284.398 599.9 286.796 599.582 286.91C598.944 287.311 583.366 286.083 582.755 285.895C582.157 285.729 594.952 285.054 579.809 284.26C581.504 284.672 583.12 285.074 584.885 285.487C577.768 285.224 577.284 283.792 575.579 283.529C570.331 282.697 564.235 284.093 555.986 280.52C553.849 279.577 557.624 279.284 557.357 279.149C554.811 277.923 551.101 279.915 547.285 277.593C546.989 277.411 556.573 277.581 540.077 275.407C541.194 275.733 542.309 276.057 543.423 276.379C541.032 276.482 524.257 274.371 522.107 273.936C515.627 272.702 521.506 272.32 514.912 271.475C518.917 273.838 498.697 270.904 500.199 269.625C497.213 271.036 480.422 266.757 472.521 265.251C467.603 264.343 457.27 263.213 455.682 262.804C453.761 262.316 454.593 261.193 451.132 260.232C450.065 259.945 439.675 258.847 430.866 255.667C429.158 255.054 425.9 252.179 429.282 252.344C435.077 252.636 445.195 256.435 445.304 255.161C445.431 253.82 431.15 251.733 427.317 250.723C409.687 246.114 420.268 246.902 419.907 246.385C418.893 245.09 409.458 243.045 409.056 242.852C407.503 242.073 414.429 242.756 414.664 242.143C414.973 241.356 406.137 237.83 408.283 238.017C411.372 238.305 419.453 241.373 420.028 241.431C427.297 242.167 417.97 238.168 415.637 236.67C414.909 236.21 418.163 236.43 417.526 236.202C407.79 232.714 414.833 238.41 408.197 236.652C402.259 235.067 410.248 235.56 410.03 235.436C409.757 235.3 402.609 233.612 401.578 232.908C401.114 232.594 420.193 234.316 419.622 233.028C413.707 231.988 407.744 230.904 401.733 229.776C401.598 228.26 409.896 231.242 410.801 231.286C412.636 231.389 407.862 229.565 408.173 229.163C408.355 228.906 414.368 229.188 409.235 227.595C407.469 227.044 403.47 227.19 397.089 224.637C420.303 228.602 404.605 224.167 404.057 223.517C403.514 222.866 414.684 224.178 401.398 221.356C401.457 218.469 401.889 220.556 405.758 220.931C410.478 221.371 400.118 218.098 416.672 222.53C416.029 221.047 402.547 218.091 401.833 217.803C401.236 217.567 404.391 217.627 403.368 217.165C391.237 211.724 399.703 214.889 396.39 212.439C395.995 212.204 384.479 208.837 393.447 210.729C410.182 214.235 416.599 217.517 420.214 214.222C408.566 209.888 392.895 208.845 389.366 208.033C383.739 206.744 389.745 207.349 389.106 206.959C388.886 206.832 384.028 205.727 383.976 205.646C381.199 201.853 405.664 210.805 413.766 212.021C411.743 211.097 409.715 210.168 407.684 209.233C410.583 209.878 413.47 210.512 416.347 211.135C402.824 207.144 415.963 210.705 419.883 209.029C420.767 208.656 411.606 207.6 422.151 208.354C414.701 206.339 417.22 206.383 410.204 205.51C410.68 204.614 426.064 206.916 432.455 207.74C411.131 201.955 422.739 208.255 404.495 202.124C400.748 202.518 409.731 204.348 408.953 204.373C406.223 204.497 400.205 201.926 392.391 202.685C391.109 202.809 395.822 205.267 388.419 203.427C387.602 203.223 383.117 200.997 383.2 200.933C384.038 200.25 388.65 201.702 388.925 201.396C389.189 201.11 383.911 200.042 383.913 199.943C384.011 198.854 388.376 200.602 387.798 200.112C386.551 199.054 368.307 192.213 392.659 198.829C372.021 195.084 389.801 199.404 397.799 200.795C399.89 201.167 400.561 200.661 403.54 201.124C407.371 201.717 411.679 203.017 413.635 203.336C415.73 203.67 404.313 199.547 421.212 203.798C413 200.442 396.963 198.387 388.923 195.326C372.421 189.09 401.242 195.63 404.552 196.125C405.381 196.26 402.843 194.773 403.399 194.847C404.337 195.003 420.807 199.166 422.548 198.788C424.321 198.444 416.523 197.483 416.172 196.627C415.979 196.09 435.888 199.539 425.294 196.862C418.019 195.038 403.785 193.849 401.934 191.153C413.08 193.582 423.756 195.792 434.878 197.983C428.917 195.858 423.305 193.772 417.506 191.612C429.624 194.068 440.322 197.315 452.107 198.489C424.738 190.118 461.523 198.275 462.065 197.971C462.161 197.801 451.698 193.503 450.011 192.742C459.677 193.951 489.727 199.147 472.812 193.248C475.86 194.448 483.694 194.374 483.607 194.241C482.899 192.934 466.16 190.547 469.058 190.002C472.444 189.393 476.528 191.88 481.342 192.63C506.258 196.383 500.414 189.141 525.117 194.051C524.654 193.758 524.191 193.464 523.728 193.17C550.46 197.659 577.652 201.415 604.642 204.223C615.15 203.373 643.664 204.272 657.293 204.993C659.931 205.177 673.781 206.656 674.722 206.834C676.622 207.228 666.146 207.027 670.863 207.8C671.826 208.024 694.961 208.885 693.303 207.759C690.751 207.622 682.547 208.013 681.212 207.727C672.132 206.223 742.99 207.441 746.371 205.86C744.785 205.595 743.19 205.325 741.589 205.051C746.117 205.025 750.573 204.966 754.956 204.877ZM537.652 279.309C534.597 279.966 527.518 278.173 523.308 277.854C517.464 277.431 506.82 279.901 511.752 276.532C520.494 277.551 528.776 278.428 537.652 279.309ZM664.432 291.944C658.528 291.158 663.225 289.06 668.001 290.163C668.526 290.285 672.381 292.976 664.432 291.944ZM603.166 287.108C603.415 287.102 608.378 287.58 608.544 287.628C612.937 288.916 597.945 287.462 603.166 287.108ZM902.115 266.549C895.604 268.453 900.935 269.151 904.705 267.184C904.942 267.061 902.541 266.426 902.115 266.549ZM897.442 267.78C891.644 267.447 882.647 273.524 890.578 271.157C891.269 270.956 897.729 267.808 897.442 267.78ZM643.584 290.114C644.288 289.442 650.294 290.091 652.83 290.372C652.737 291.021 646.132 290.175 643.584 290.114ZM797.788 286.82C798.097 286.29 776.666 288.28 775.398 289.047C778.569 288.551 797.713 287.385 797.788 286.82ZM852.292 278.315C851.635 278.348 844.467 279.753 844.738 280.199C848.361 280.25 854.833 278.296 852.292 278.315ZM962.257 244.228C962.68 243.78 955.192 244.495 970.188 238.508C972.43 237.575 965.379 242.546 966.134 242.215C967.847 241.532 969.136 240.918 970.13 240.365C963.496 244.511 956.935 247.72 956.305 247.815C954.667 248.092 956.004 247.326 957.878 246.387C959.843 245.407 962.178 244.299 962.257 244.228ZM893.441 208.985C893.001 210.206 887.598 215.581 886.26 216.703C886.028 216.893 885.931 215.026 883.662 217.599C881.842 219.667 885.659 217.605 881.834 221.371C877.97 225.178 882.198 219.218 881.824 219.516C881.323 219.917 876.048 226.463 875.641 225.725C875.34 225.177 881.769 218.892 883.194 217.183C885.018 214.995 881.939 216.838 885.342 213.511C887.479 211.421 887.619 213.819 888.114 213.419C888.527 213.081 894.927 204.772 893.426 208.993C893.431 208.991 893.436 208.988 893.441 208.985ZM971.864 239.26C971.405 239.601 970.844 239.968 970.13 240.365C970.718 239.998 971.297 239.627 971.864 239.26ZM554.401 280.712C557.306 281.613 548.404 281.205 545.11 280.058C545.135 279.496 553.949 280.579 554.401 280.712ZM920.215 178.567C914.436 184.15 917.433 180.141 921.876 174.832L973.497 238.183C972.968 238.539 972.422 238.899 971.864 239.26C972.529 238.765 972.975 238.323 973.33 237.909L922.11 175.052C921.679 176.211 921.752 177.081 920.215 178.567ZM719.241 290.25C719.616 290.374 719.856 290.573 719.891 290.905C718.904 290.557 718.813 290.363 719.241 290.25ZM740.181 290.285C747.223 289.005 732.83 289.583 732.901 290.283C732.963 290.56 739.91 290.341 740.181 290.285ZM910.607 264.174C909.894 264.274 919.429 258.238 904.942 264.95C913.218 262.898 904.668 265.761 904.902 265.962C905.568 266.621 918.585 261.894 921.874 261.074C923.775 259.012 912.87 263.882 910.624 264.169C910.619 264.171 910.613 264.173 910.607 264.174ZM826.111 279.885C826.699 278.075 830.624 274.26 833.179 271.597C832.591 273.407 828.666 277.223 826.111 279.885ZM609.894 861.461C584.851 861.758 581.814 858.498 604.597 860.113C605.053 860.145 611.405 861.159 609.894 861.461ZM397.029 867.688C394.593 866.443 402.272 865.604 407.299 865.823C408.44 865.871 412.712 867.009 407.975 867.646C408.004 865.901 400.562 865.799 397.029 867.688ZM917.566 182.742C916.553 185.224 910.792 190.387 907.913 193.255C909.032 190.908 914.894 185.161 917.566 182.742ZM528.419 859.903C525.698 859.859 524.082 861.149 524.509 861.241C526.421 861.666 531.506 860.54 528.419 859.903ZM954.38 245.682C953.637 245.485 964.582 239.381 966.115 240.027C963.644 241.361 954.661 245.998 954.38 245.682ZM831.177 275.097C832.471 274.138 827.245 280.486 825.339 282.103C825.031 281.542 830.33 275.726 831.177 275.097ZM486.317 861.743C484.021 861.731 478.236 861.964 477.612 862.499C476.853 863.162 485.317 862.56 486.317 861.743ZM903.517 912.553C903.539 912.795 896.009 910.76 892.808 908.848C886.967 905.203 903.403 912.137 903.517 912.553ZM553.259 858.828C560.534 859.94 552.462 858.872 552.789 860.119C557.58 860.099 570.096 860.1 561.445 858.921C559.81 858.693 555.552 858.883 553.259 858.828ZM546.503 858.497C545.723 858.911 540.423 860.271 545.019 860.107C547.14 860.03 550.526 858.568 546.503 858.497ZM856.339 893.618C850.893 890.511 877.427 900.399 877.764 901.035C878.107 901.282 878.319 901.471 878.43 901.603C879.444 901.62 884.466 903.64 884.62 904.682C883.25 904.006 879.144 902.398 878.741 902.137C878.566 902.021 878.437 901.927 878.353 901.851C876.63 901.817 857.513 894.082 856.339 893.618ZM810.671 879.942C818.093 879.967 818.576 882.972 817.981 882.913C810.221 882.238 815.578 881.408 815.377 881.26C814.901 880.977 809.248 880.656 810.693 879.947C810.686 879.946 810.678 879.944 810.671 879.942ZM847.267 890.272C847.582 890.32 853.072 892.122 853.388 892.28C857.745 894.616 841.844 889.415 847.267 890.272ZM866.925 240.174C863.555 243.374 865.918 239.354 868.292 237.353C868.492 237.193 869.898 237.352 866.925 240.174ZM542.876 858.828C541.825 858.606 514.619 858.532 516.408 860.057C518.438 859.755 549.545 859.915 542.876 858.828ZM355.848 786.704C352.525 790.24 355.077 785.384 357.241 783.863C358.044 783.3 356.685 785.813 355.848 786.704ZM939.09 250.881C934.035 253.728 934.112 250.833 939.137 249.827C939.336 249.786 939.295 250.766 939.09 250.881ZM378.838 867.99C362.166 870.331 365.869 865.338 387.551 865.084C386.897 865.343 386.242 865.603 385.586 865.863C410.276 864.564 387.365 866.023 381.249 866.81C378.938 867.104 380.948 867.705 378.854 867.994C378.849 867.993 378.843 867.992 378.838 867.99ZM373.341 768.13C386.735 758.594 364.167 779.607 358.45 786.342C363.308 779.174 371.065 771.179 359.709 781.297C374.642 764.941 369.294 772.563 369.978 771.991C370.781 771.31 372.769 768.536 373.341 768.13ZM344.321 799.189C343.77 799.914 338.753 804.359 336.967 806.366L269.71 874.775L367.287 868.519C367.361 868.511 367.432 868.502 367.5 868.493C367.434 868.52 367.365 868.547 367.292 868.573L269.572 874.838L336.927 806.329C338.788 802.846 348.001 794.323 344.321 799.189ZM760.239 871.261C760.928 870.485 762.462 870.053 767.683 871.225C765.992 871.395 762.544 871.233 760.239 871.261ZM532.793 273.993C528.91 273.393 521.363 271.955 523.563 273.206C523.833 273.331 532.628 274.498 532.793 273.993ZM464.316 860.88C463.515 860.793 442.641 861.921 449.855 862.472C452.065 862.614 471.055 861.474 464.316 860.88ZM571.01 857.976C569.282 857.965 562.152 858.163 561.993 858.374C561.525 859.087 570.265 858.656 571.01 857.976ZM513.476 270.255C512.997 270.103 501.019 268.37 502.319 269C504.596 270.191 515.21 270.844 513.476 270.255ZM856.892 253.9C856.25 254.634 854.676 254.926 854.438 255.164C853.888 255.733 841.976 269.004 845.738 263.196C846.365 262.227 864.229 243.813 866.596 241.458C868.43 241.407 860.039 248.562 858.316 250.601C858.013 250.961 858.605 251.927 856.893 253.891C856.893 253.894 856.892 253.897 856.892 253.9ZM787.64 874.996C788.613 874.265 808.059 877.705 807.694 878.724C800.832 877.335 794.446 876.16 787.64 874.996ZM777.606 873.029C773.564 871.726 783.319 873.232 786.288 874.071C786.24 874.618 778.084 873.188 777.606 873.029ZM531.882 855.34C529.784 855.588 536.275 856.66 534.832 856.926C533.916 857.09 529.201 856.74 527.697 857.156C527.275 857.286 532.116 858.311 533.493 858.234C535.455 858.128 533.533 857.272 535.674 857.222C542.773 857.062 548.98 857.61 555.445 857.531C556.03 857.522 551.493 856.935 556.475 856.895C557.244 856.888 561.831 857.784 568.051 857.626C581.721 854.687 590.854 857.581 608.228 856.865C607.638 856.566 594.748 855.62 594.001 855.596C580.273 854.909 554.416 854.945 539.695 855.245C535.846 855.313 537.726 855.896 536.066 855.951C534.749 855.995 536.299 854.817 531.882 855.34ZM534.966 273.657C533.193 272.263 526.735 272.082 522.628 271.414C523.967 272.655 530.813 272.832 534.966 273.657ZM687.746 861.098C685.65 860.974 679.668 860.188 679.146 860.499C678.457 860.893 687.179 861.824 687.746 861.098ZM787.987 327.096C787.874 327.261 784.474 330.807 784.321 330.918C780.654 333.498 790.856 322.866 787.987 327.096ZM707.562 412.76C705.12 415.577 702.814 418.565 701.283 418.846C703.008 417.21 707.389 412.001 707.562 412.76ZM596.849 531.169C598.26 531.436 590.028 539.088 588.502 540.56C588.644 539.619 595.825 530.985 596.849 531.169ZM760.025 867.378C766.676 868.472 765.548 866.445 769.571 867.936C770.214 868.188 771.808 872.307 764.846 869.742C763.57 869.285 768.868 869.179 760.025 867.378ZM391.04 864.838C392.69 863.899 398.042 863.711 401.617 863.501C400.868 864.155 393.616 864.569 391.04 864.838ZM492.356 265.929C489.34 264.295 474.077 262.457 477.684 263.851C478.217 264.056 490.286 265.55 492.356 265.929ZM908.333 197.969C904.81 203.041 913.658 193.986 915.751 190.473C914.557 191.833 908.572 197.628 908.333 197.969ZM623.928 503.182C623.755 503.421 619.266 508.095 619.036 508.276C614.728 511.519 627.426 498.291 623.928 503.182ZM735.032 385.546C733.973 387.753 723.055 398.558 720.169 400.568C721.646 397.418 736.341 382.804 735.032 385.546ZM733.046 864.236C737.6 864.749 742.301 865.582 746.505 866.474C745.605 866.953 733.297 864.712 733.046 864.236ZM607.736 520.607C607.495 520.858 607.213 521.057 606.981 521.294C607.236 521.059 607.49 520.831 607.736 520.607ZM626.879 855.998C622.896 855.626 623.725 856.787 623.954 856.828C626.809 857.282 631.546 856.43 626.879 855.998ZM530.418 271.323C529.147 270.115 522.122 269.902 518.136 269.052C519.188 270.032 527.221 270.986 530.418 271.323ZM386.658 756.956C390.984 753.953 377.615 770.13 374.079 772.866C373.356 772.636 386.032 757.403 386.658 756.956ZM922.416 185.157C923.083 185.347 926.387 181.181 927.154 179.769L969.728 232.017C969.305 232.416 969.225 232.601 969.723 232.4C969.778 232.378 969.84 232.35 969.911 232.316L926.898 179.53C925.722 180.507 921.905 185.003 922.416 185.157ZM366.542 780.24C365.377 781.844 361.666 784.654 362.418 783.146C363.383 781.21 366.839 779.821 366.542 780.24ZM502.375 855.482C501.537 855.382 489.991 856.656 494.808 857.284C498.148 857.722 498.624 856.547 499.401 856.514C500.304 856.473 518.657 857.268 502.375 855.482ZM467.305 671.754C464.547 675.153 460.68 678.764 457.575 682.116C458.485 680.419 465.556 672.661 467.305 671.754ZM899.403 210.074C900.364 209.521 920.238 188.558 908.301 199.862C907.606 200.522 896.487 211.756 899.403 210.074ZM760.025 867.378C759.166 867.239 758.245 867.062 757.186 866.825C758.245 867.013 759.165 867.206 760.025 867.378ZM685.162 858.91C686.68 858.438 679.126 857.716 676.85 857.876C676.144 858.535 684.852 858.96 685.162 858.91ZM457.932 682.925C456.377 685.076 452.853 688.323 450.654 690.73C450.636 689.957 456.752 683.381 457.932 682.925ZM584.67 548.316C580.864 551.914 576.577 556.714 576.994 557.239C576.844 557.247 576.59 557.357 576.222 557.589C575.852 557.825 572.251 562.126 570.424 563.748C559.491 573.47 608.276 522.123 581.602 553.381C582.625 551.693 583.647 550.004 584.67 548.316ZM750.358 371.444C752.974 369.828 757.913 363.068 756.207 364.426C755.022 365.374 747.736 373.059 750.358 371.444ZM672.709 455.162C673.42 454.613 678.55 448.301 678.382 447.858C674.869 450.959 669.46 457.656 672.709 455.162ZM766.63 355.43C767.991 354.153 768.664 351.529 768.473 351.65C766.833 352.708 763.964 357.22 766.63 355.43ZM747.1 861.981C744.554 861.247 735.594 861.052 733.805 861.711C733.489 861.505 732.611 861.18 730.968 860.723C730.974 860.724 730.979 860.724 730.984 860.725C728.947 859.687 659.559 853.298 705.884 858.995C707.304 859.185 705.429 858.223 711.208 858.925C711.608 858.974 711.746 859.62 712.975 859.775C715.881 860.106 730.551 862.129 733.417 861.996C733.427 862.115 733.6 862.247 733.983 862.396C737.437 863.711 749.176 862.543 747.1 861.981ZM661.804 466.99C663.09 465.957 666.459 462.03 666.419 461.26C664.469 462.946 658.818 469.386 661.804 466.99ZM901.68 210.977C904.286 208.859 909.422 202.118 907.349 203.669C906.078 204.619 898.676 213.421 901.68 210.977ZM696.953 428.976C683.442 442.46 693.882 432.337 692.481 435.028C693.972 433.011 695.462 430.993 696.953 428.976ZM829.662 879.983C826.924 879.081 830.626 878.369 833.406 880.019C834.276 880.539 831.19 880.485 829.662 879.983ZM938.87 930.138C938.53 927.75 944.458 934.917 941.24 933.033C941.117 932.927 938.937 930.253 938.87 930.138ZM866.899 890.173C864.808 890.47 863.685 890.173 858.597 888.231C866.261 890.519 859.591 887.333 866.899 890.173ZM577.108 557.269C577.057 557.266 577.016 557.267 576.994 557.239C577.045 557.236 577.081 557.247 577.108 557.269ZM778.697 342.159C780.928 340.977 785.456 336.047 783.49 336.938C783.302 337.026 778.922 341.029 778.697 342.159ZM733.805 861.711C734.085 861.893 733.922 861.969 733.417 861.996C733.407 861.884 733.548 861.796 733.805 861.711ZM754.639 368.861C754.354 368.268 747.222 375.544 746.995 375.892C743.779 380.888 751.793 371.958 754.639 368.861ZM939.367 243.126C938.85 243.411 942.968 243.422 944.821 241.927C946.285 240.763 941.321 242.072 939.367 243.126ZM884.006 896.289C886.804 897.439 890.534 899.072 890.894 900.06C889.235 899.177 883.765 896.774 884.006 896.289ZM936.781 926.839C934.065 925.573 928.613 921.271 924.901 918.592C925.61 917.539 934.753 925.201 936.781 926.839ZM755.347 863.579C755.127 863.49 747.492 862.067 748.428 862.988C749.837 864.326 757.43 864.307 755.347 863.579ZM956.128 236.42C959.71 234.006 950.193 237 946.79 239.853C945.058 241.389 955.365 236.99 956.128 236.42ZM793.759 327.632C796.69 323.837 788.022 331.929 787.488 333.692C789.038 332.131 792.717 328.979 793.759 327.632ZM683.417 446.809C695.409 437.429 686.682 440.484 685.134 442.69C684.917 443.001 683.126 447.04 683.417 446.809ZM455.665 254.521C453.458 254.429 461.231 257.129 462.398 256.551C463.127 256.195 457.082 254.586 455.665 254.521ZM527.58 611.187C528.008 610.718 528.433 610.253 528.854 609.793C528.563 610.16 528.151 610.618 527.58 611.187ZM825.655 298.137C815.999 303.604 818.626 304.539 817.988 305.201C816.604 306.629 812.792 309.391 810.34 312.228C812.999 308.838 815.657 305.449 818.316 302.06C815.826 304.372 794.816 325.046 794.787 325.864C794.743 327.033 800.898 320.101 801.132 319.95C801.467 319.732 804.012 320.13 804.658 319.557C805.719 318.613 822.573 300.658 825.655 298.137ZM704.636 423.585C702.799 425.178 701.713 425.104 701.093 426.062C700.882 426.389 701.427 426.984 700.687 428.08C702.003 426.582 703.319 425.083 704.636 423.585ZM836.429 282.252C839.195 280.735 829.742 290.295 829.367 290.534C827.31 291.758 834.169 283.492 836.429 282.252ZM758.634 365.635C759.011 365.316 766.285 357.989 765.83 357.677C763.661 359.386 754.147 369.381 758.634 365.635ZM699.624 429.297C697.079 431.881 691.804 436.333 693.227 436.587C693.23 436.583 693.234 436.579 693.238 436.575C695.366 434.149 697.495 431.723 699.624 429.297ZM930.385 184.067C930.684 183.888 930.958 183.72 931.209 183.562L966.832 227.279C961.914 228.922 963.446 229.294 967.253 227.967L930.621 183.011C929.802 183.54 928.869 184.225 927.91 185.057C927.312 186.965 929.403 184.657 930.385 184.067ZM944.896 237.318C942.817 238.099 923.305 246.055 926.605 245.815C927.868 245.808 938.861 240.528 939.432 240.298C940.25 240.062 937.129 242.624 943.001 239.879C942.442 239.71 945.629 237.124 944.896 237.318ZM961.521 229.255C953.815 231.813 953.638 234.822 958.772 232.18C960.742 231.142 962.682 228.843 961.521 229.255ZM916.287 200.612C918.116 199.032 922.761 194.614 925.116 190.777C921.028 195.036 916.939 199.295 912.851 203.554C912.758 204.399 914.686 201.992 916.298 200.6C916.294 200.604 916.291 200.608 916.287 200.612ZM958.76 943.928C958.582 942.443 959.221 943.253 959.777 944.403C960.354 945.594 960.678 946.994 960.595 947.091C960.343 947.452 959.969 947.033 959.6 946.322C959.233 945.602 958.822 944.565 958.76 943.928ZM419.578 221.945C418.214 221.331 417.5 220.144 414.229 219.955C417.244 221.391 420.246 222.813 423.248 224.226C426.112 223.105 421.051 222.617 419.578 221.945ZM408.818 213.16C409.275 213.221 407.407 210.115 412.816 213.13C416.541 215.201 394.73 211.396 391.255 209.332C395.485 209.794 404.915 212.625 408.818 213.16ZM374.279 193.241C374.091 192.983 382.213 194.686 383.098 195.049C387.788 197.001 375.349 194.675 374.279 193.241ZM399.714 199.931C396.012 198.539 404.547 200.208 406.977 201.062C407.115 201.597 400.293 200.147 399.714 199.931ZM954.712 883.816C952.086 879.724 946.503 880.559 952.671 883.923C952.96 884.083 954.815 883.998 954.712 883.816ZM382.777 192.628C386.412 194.045 378.013 192.32 375.58 191.403C375.47 190.877 382.228 192.42 382.777 192.628ZM954.562 878.497C950.143 873.888 949.53 878.717 950.084 879.287C952.362 881.551 961.984 886.635 963.98 887.84C950.545 878.16 956.587 880.798 954.562 878.497ZM929.348 866.147C924.249 863.938 936.224 871.345 939.129 871.797C936.629 870.352 930.9 866.801 929.348 866.147ZM899.644 850.861C897.13 849.648 889.128 846.203 887.455 846.335C890.61 847.331 898.317 851.051 899.644 850.861ZM894.328 846.585C890.36 844.089 888.382 846.211 893.613 847.341C893.815 847.385 894.466 846.693 894.328 846.585ZM870.27 837.138C867.693 835.201 863.843 836.727 868.286 838.187C869.63 838.627 870.553 837.357 870.27 837.138ZM950.628 870.274C947.094 867.46 941.148 865.981 949.185 871.252C946.229 869.691 943.17 868.155 940.007 866.643C950.531 874.127 950.654 871.435 953.877 873.655C958.122 876.746 956.472 878.243 955.273 878.199C959.252 879.214 973.968 890.526 981.495 898.826C975.331 891.033 964.135 880.52 956.941 875.201C954.906 873.648 952.338 872.628 950.624 871.437C947.827 869.503 950.82 870.434 950.643 870.283C950.638 870.28 950.633 870.277 950.628 870.274ZM838.112 827.975C829.757 824.663 834.647 828.536 839.567 829.307C839.782 829.325 838.32 828.057 838.112 827.975ZM373.905 182.259C384.474 186.011 376.393 185.579 399.309 188.824C389.563 188.099 398.535 189.789 396.557 189.961C394.974 190.095 389.533 188.363 392.518 190.107C388.585 188.076 369.937 183.732 369.112 183.315C369.119 183.317 369.127 183.319 369.135 183.321C368.659 183.091 370.515 181.045 373.905 182.259ZM902.158 844.53C900.617 840.509 897.759 844.745 893.18 840.214C884.506 840.891 913.505 848.137 915.183 852.78C886.173 839.616 933.285 864.429 914.792 850.818C931.063 860.351 920.631 852.893 923.528 853.57C926.56 854.25 935.769 859.886 935.849 858.635C935.844 858.633 935.839 858.63 935.833 858.627C929.744 855.421 924.28 852.801 918.101 850.038C922.816 855.02 911.269 848.813 907.918 845.232C906.015 844.99 904.059 844.741 902.158 844.53ZM934.248 862.192C933.669 861.71 921.057 855.705 921.624 856.621C923.119 857.509 941.012 866.69 934.248 862.192ZM985.99 901.591C982.372 897.158 976.466 890.669 973.651 889.465C977.624 892.995 983.29 899.755 985.99 901.591ZM751.435 809.586C745.284 809.544 763.838 812.311 758.595 810.654C758.352 810.57 751.752 809.585 751.435 809.586ZM888.591 839.844C882.91 836.783 884.551 840.617 889.458 841.552C889.738 841.604 888.864 839.989 888.591 839.844ZM382.789 184.094C383.397 183.485 398.783 187.759 401.587 188.391C399.814 188.719 382.18 184.854 382.789 184.094ZM994.621 908.266C989.823 896.173 976.13 887.772 975.062 886.798C973.875 885.635 976.603 886.5 976.344 886.225C975.774 885.307 962.229 874.524 961.568 874.389C961.074 874.109 962.486 877.192 959.447 875.635C965.822 877.988 988.636 900.502 989.502 902.851C990.433 903.926 985.516 894.337 994.608 908.248C994.612 908.254 994.617 908.26 994.621 908.266ZM972.141 883.747C974.948 887.043 965.896 879.469 963.571 877.535C958.742 873.117 972.004 883.273 972.141 883.747ZM949.681 866.556C948.703 865.665 938.492 859.511 937.304 859.82C941.447 863.157 952.08 868.469 949.681 866.556ZM832.625 821.149C829.931 820.59 822.45 818.272 821.841 818.841C824.693 819.361 832.063 821.702 832.625 821.149ZM437.563 190.625C433.264 189.129 443.548 191.083 446.439 191.95C446.516 192.434 437.938 190.761 437.563 190.625ZM889.739 833.359C888.436 832.328 854.379 822.126 849.63 821.506C854.062 822.907 887.606 833.513 888.869 834.033C889.348 834.126 889.944 833.468 889.739 833.359ZM961.143 868.54C964.646 869.773 965.747 872.106 966.086 872.375C969.794 875.244 976.929 880.997 974.756 880.432C969.106 874.805 954.173 866.12 961.143 868.54ZM831.336 816.194C819.932 813.893 841.461 820.068 838.944 818.431C838.759 818.312 832.438 816.405 831.336 816.194ZM893.673 834.488C896.489 834.236 929.692 849.201 934.729 852.475C929.216 851.28 926.237 848.513 919.541 845.507C917.808 844.739 918.035 845.526 917.847 845.441C914.927 844.158 917.401 844.484 915.598 843.669C914.506 842.926 889.801 834.106 893.673 834.488ZM963.201 869.147C965.211 869.326 985.151 885.723 985.489 886.998C990.406 892.738 964.812 869.518 963.201 869.147ZM890.978 832.09C895.46 831.779 911.328 839.333 899.836 835.722C898.743 835.376 894.393 832.914 890.978 832.09ZM832.917 814.876C832.434 814.68 820.55 811.62 820.16 812.126C821.999 812.685 839.098 816.91 832.917 814.876ZM839.632 814.594C839.328 814.535 841.968 816.273 836.221 814.722C835.701 814.589 835.193 813.205 828.084 812.007C826.638 811.766 824.232 812.035 824.382 812.12C831.12 815.439 854.514 817.741 839.632 814.594ZM964.124 868.618C963.361 867.456 966.77 868.034 968.653 870.408C969.481 871.45 967.032 870.684 964.124 868.618ZM794.899 806.436C802.046 806.789 780.247 802.739 779.052 802.853C779.795 803.515 793.943 806.32 794.899 806.436ZM449.271 185.927C449.266 185.926 449.261 185.925 449.256 185.924C454.69 187.25 451.147 187.292 451.399 187.368C462.813 190.814 460.032 188.49 461.928 188.667C465.993 189.021 464.968 190.945 471.806 191.379C460.519 190.502 470.681 191.919 470.851 192.701C471.528 195.916 456.373 188.458 450.91 187.958C450.136 187.891 455.531 189.97 453.539 189.845C447.073 189.457 428.283 180.725 449.271 185.927ZM970.587 871.718C973.873 872.48 992.01 890.799 986.519 886.655C985.839 885.423 966.16 869.582 970.587 871.718ZM624.49 604.095C621.733 608.164 630.078 600.562 631.067 598.631C631.557 597.672 625.701 602.307 624.49 604.095ZM680.777 548.717C684.604 544.397 686.424 537.771 681.883 543.352C681.402 543.946 680.001 548.897 680.777 548.717ZM420.804 824.261C425.754 820.642 423.958 819.454 420.959 822.704C419.9 823.852 420.648 824.375 420.804 824.261ZM577.658 656.159C578.125 655.769 582.783 650.59 582.253 650.443C580.28 652.123 574.623 658.659 577.658 656.159ZM419.718 825.865C421.879 822.995 416.558 826.436 414.671 830.649C416.096 828.946 419.496 826.16 419.718 825.865ZM879.89 823.296C876.387 823.04 868.014 820.133 862.925 818.822C862.805 817.574 876.026 822.177 879.89 823.296ZM663.109 565.724C666.259 561.192 657.79 569.292 659.292 569.227C659.435 569.157 662.987 565.904 663.109 565.724ZM512.938 785.621C508.973 786.41 521.648 786.95 518.134 785.867C517.965 785.822 513.16 785.575 512.938 785.621ZM568.953 785.083C565.751 784.851 552.749 785.026 557.799 785.642C558.442 785.731 568.745 785.694 568.953 785.083ZM462.415 187.935C461.07 186.491 470.143 188.547 471.393 188.985C471.895 189.17 464.191 189.829 462.415 187.935ZM447.662 795.812C449.685 793.436 455.409 787.721 455.937 786.266C453.424 789.136 446.076 795.732 447.662 795.812ZM646.103 583.914C650.272 581.302 655.732 575.282 653.157 575.624C647.107 582.255 654.996 575.825 646.103 583.914ZM406.996 841.453C408.774 839.693 408.927 837.214 408.68 837.369C406.312 838.862 404.85 842.846 406.996 841.453ZM534.169 703.58C534.762 703.936 540.011 697.875 538.962 698.359C538.616 698.515 533.69 703.292 534.169 703.58ZM771.836 798.007C768.061 796.8 779.976 798.024 783.213 799.317C784.731 800.604 772.366 798.137 771.836 798.007ZM408.295 790.236C408.499 789.209 396.039 790.711 401.02 791.171C402.207 791.289 408.168 790.58 408.295 790.236ZM529.942 783.128C521.387 784.469 557.487 784.688 547.983 783.364C547.356 783.249 530.743 782.992 529.942 783.128ZM588.747 783.45C587.284 783.308 588.061 779.934 594.054 781.299C594.84 781.476 591.145 782.328 591.786 782.539C592.003 782.644 605.64 783.31 606.226 783.256C606.895 783.179 606.13 782.084 606.809 781.975C607.585 781.851 615.811 782.971 620.046 783.102C628.039 783.341 628.885 782.485 629.599 782.502C631.59 782.561 634.901 783.313 638.872 783.466C658.625 784.154 688.818 785.321 704.814 788.712C690.568 786.701 677.626 786.605 663.358 786.056C667.401 784.372 643.007 786.462 657.252 785.008C650.951 784.872 593.414 783.654 588.763 783.45C588.758 783.45 588.752 783.45 588.747 783.45ZM697.021 532.732C695.441 536.107 707.674 522.649 707.755 520.612C705.981 522.239 697.226 532.322 697.021 532.732ZM641.761 595.923C640.753 597.292 641.301 599.999 634.418 605.688C634.412 605.694 634.407 605.7 634.401 605.706C632.389 607.369 634.004 604.84 633.538 605.053C633.361 605.124 627.027 610.258 631.478 605.237C638.263 597.578 633.358 605.677 637.101 601.71C637.557 601.224 643.719 592.854 643.114 593.109C643.048 593.134 641.115 595.578 640.684 595.876C639.055 597.006 639.186 595.837 638.975 596.014C638.303 596.608 628.027 609.347 625.642 610.366C624.869 610.699 642.602 590.601 643.443 589.958C643.975 589.552 645.209 591.087 645.816 590.719C646.126 590.527 652.954 582.157 654.04 581.258C654.356 580.997 654.609 580.808 654.798 580.674C653.243 581.452 659.942 574.354 660.235 575.038C660.314 575.345 655.612 580.145 655.414 580.288C655.328 580.352 655.245 580.4 655.173 580.45C656.66 579.936 641.1 596.523 645.253 593.685C641.187 598.909 644.72 591.905 641.761 595.923ZM620.993 619.889C621.308 619.251 621.623 618.614 621.938 617.977C614.421 626.749 604.602 635.801 595.526 645.516C593.221 647.981 596.789 646.003 593.517 648.998C590.897 651.398 587.369 653.467 588.495 651.883C588.769 651.495 594.249 646.745 596.658 644.056C603.77 636.115 601.146 637.347 601.55 636.872C601.998 636.348 607.132 631.966 609.61 629.268C615.837 622.483 618.228 618.959 627.454 610.359C623.011 616.147 626.853 614.294 620.993 619.889ZM461.844 783.837C462.264 783.135 469.974 783.346 472.725 783.119C472.33 783.815 464.652 783.588 461.844 783.837ZM789.617 203.831C787.468 205.209 804.019 203.611 799.558 203.185C798.633 203.097 791.559 203.646 789.617 203.831ZM861.669 192.735C863.646 191.969 855.2 193.08 855.373 193.904C855.484 194.171 861.347 192.861 861.669 192.735ZM518.283 728.1C518.008 728.445 513.457 732.949 513.278 733.057C509.521 735.347 524.405 720.432 518.283 728.1ZM977.198 237.999C982.204 231.58 965.305 249.186 971.076 244.375C971.363 244.134 976.957 238.307 977.198 237.999ZM954.177 262.908C955.476 261.462 961.636 255.407 961.466 255.092C961.184 254.593 954.163 261.552 954.177 262.908ZM408.909 845.552C410.463 845.723 401.997 853.387 399.41 856.384C397.853 856.214 406.323 848.548 408.909 845.552ZM458.65 793.722C426.599 829.434 431.87 819.883 460.157 791.219C460.783 791.725 460.673 791.468 458.65 793.722ZM416.577 838.488C417.182 836.667 421.077 832.85 423.639 830.206C423.594 831.07 418.285 836.45 416.577 838.488ZM769.996 203.892C772.633 202.702 785.455 202.783 783.225 203.4C782.718 203.571 768.958 204.557 769.996 203.892ZM516.319 731.768C517.972 731.783 507.768 741.965 506.817 742.586C502.986 745.091 515.719 732.803 516.319 731.768ZM408.368 784.552C410.931 783.408 418.386 783.373 423.102 783.072C421.015 784.026 412.45 784.27 408.368 784.552ZM374.479 786.463C374.779 786.399 381.371 785.938 381.663 785.959C387.132 786.44 368.485 787.752 374.479 786.463ZM443.533 175.376C443.749 175.392 448.42 176.432 448.573 176.499C452.569 178.271 438.539 175.138 443.533 175.376Z" fill="url(#paint0_linear_87_31)"/>
</g>
<g filter="url(#filter1_f_87_31)">
<path d="M322.948 543.54C355.394 516.315 391.929 497.822 429.203 487.985C373.059 558.211 367.183 653.51 420.342 716.863C482.12 790.487 600.236 793.085 684.161 722.664C688.451 719.064 692.565 715.34 696.508 711.51C688.241 771.789 656.176 831.858 602.599 876.814C497.693 964.841 350.048 961.594 272.825 869.563C195.602 777.532 218.043 631.567 322.948 543.54Z" fill="url(#paint1_linear_87_31)"/>
</g>
<g filter="url(#filter2_d_87_31)">
<path d="M919.283 948.254C815.399 870.606 653.872 854.83 536.616 935.323C536.589 935.341 536.562 935.36 536.535 935.378C441.966 1005.09 318.01 987.794 206.32 924.848C193.689 918.488 180.881 911.722 168 906.049C178.513 915.353 188.767 925.358 199.277 934.993C283.248 1026.56 454.626 1079.2 572.465 989.544C572.487 989.529 572.511 989.514 572.533 989.499C667.087 925.212 795.583 915.814 913.171 958.985C925.858 964.303 939.397 969.482 949 979.551C942.739 966.634 930.572 957.216 919.283 948.254Z" fill="url(#paint2_linear_87_31)"/>
</g>
<defs>
<filter id="filter0_i_87_31" x="269.57" y="166.207" width="747.789" height="785.016" filterUnits="userSpaceOnUse" color-interpolation-filters="sRGB">
<feFlood flood-opacity="0" result="BackgroundImageFix"/>
<feBlend mode="normal" in="SourceGraphic" in2="BackgroundImageFix" result="shape"/>
<feColorMatrix in="SourceAlpha" type="matrix" values="0 0 0 0 0 0 0 0 0 0 0 0 0 0 0 0 0 0 127 0" result="hardAlpha"/>
<feOffset dy="4"/>
<feGaussianBlur stdDeviation="2"/>
<feComposite in2="hardAlpha" operator="arithmetic" k2="-1" k3="1"/>
<feColorMatrix type="matrix" values="0 0 0 0 0.247059 0 0 0 0 0.662745 0 0 0 0 0.960784 0 0 0 1 0"/>
<feBlend mode="normal" in2="shape" result="effect1_innerShadow_87_31"/>
</filter>
<filter id="filter1_f_87_31" x="222.895" y="483.984" width="477.613" height="460.783" filterUnits="userSpaceOnUse" color-interpolation-filters="sRGB">
<feFlood flood-opacity="0" result="BackgroundImageFix"/>
<feBlend mode="normal" in="SourceGraphic" in2="BackgroundImageFix" result="shape"/>
<feGaussianBlur stdDeviation="2" result="effect1_foregroundBlur_87_31"/>
</filter>
<filter id="filter2_d_87_31" x="164" y="882" width="789" height="161.873" filterUnits="userSpaceOnUse" color-interpolation-filters="sRGB">
<feFlood flood-opacity="0" result="BackgroundImageFix"/>
<feColorMatrix in="SourceAlpha" type="matrix" values="0 0 0 0 0 0 0 0 0 0 0 0 0 0 0 0 0 0 127 0" result="hardAlpha"/>
<feOffset dy="4"/>
<feGaussianBlur stdDeviation="2"/>
<feComposite in2="hardAlpha" operator="out"/>
<feColorMatrix type="matrix" values="0 0 0 0 0.372549 0 0 0 0 0.729412 0 0 0 0 1 0 0 0 1 0"/>
<feBlend mode="normal" in2="BackgroundImageFix" result="effect1_dropShadow_87_31"/>
<feBlend mode="normal" in="SourceGraphic" in2="effect1_dropShadow_87_31" result="shape"/>
</filter>
<linearGradient id="paint0_linear_87_31" x1="673.5" y1="203" x2="673.5" y2="943" gradientUnits="userSpaceOnUse">
<stop stop-color="#2F80ED"/>
<stop offset="0.43754" stop-color="#3FA9F5"/>
<stop offset="0.67312" stop-color="#6EC1FF"/>
</linearGradient>
<linearGradient id="paint1_linear_87_31" x1="280.525" y1="550.218" x2="560.175" y2="883.492" gradientUnits="userSpaceOnUse">
<stop stop-color="#FFF1C1"/>
<stop offset="0.9999" stop-color="#FAF2D4"/>
</linearGradient>
<linearGradient id="paint2_linear_87_31" x1="949" y1="958.937" x2="168" y2="958.937" gradientUnits="userSpaceOnUse">
<stop offset="0.187537" stop-color="#6EC1FF"/>
<stop offset="0.591389" stop-color="#4FA1F6"/>
</linearGradient>
</defs>
</svg>
